<?xml version="1.0" encoding="iso-8859-1"?>
<!-- Generator: Adobe Illustrator 19.0.0, SVG Export Plug-In . SVG Version: 6.00 Build 0)  -->
<svg version="1.1" fill="#4a4a4a" id="Capa_1" xmlns="http://www.w3.org/2000/svg" xmlns:xlink="http://www.w3.org/1999/xlink" x="0px" y="0px"
	 viewBox="0 0 512.009 512.009" style="enable-background:new 0 0 512.009 512.009;" xml:space="preserve">
<g>
	<g>
		<g>
			<path d="M272.392,249.22l-0.009-132.207c0-9.052-7.339-16.383-16.383-16.383s-16.383,7.331-16.383,16.383L239.626,256
				c0,4.349,1.731,8.511,4.801,11.59l85.765,85.765c3.204,3.195,7.393,4.792,11.59,4.792c4.189,0,8.378-1.589,11.573-4.792
				c6.399-6.399,6.399-16.764,0-23.172L272.392,249.22z"/>
			<path d="M512.009,256.009c0-0.079-0.011-0.155-0.012-0.234C511.87,114.712,397.083,0.009,256,0.009
				c-141.161,0-256,114.839-256,256S114.839,512,256,512c141.083,0,255.87-114.695,255.997-255.757
				C511.998,256.164,512.009,256.088,512.009,256.009z M272.383,478.64v-25.471c0-9.052-7.339-16.383-16.383-16.383
				s-16.383,7.331-16.383,16.383v25.471c-110.061-8.023-198.227-96.196-206.248-206.257h25.471c9.052,0,16.383-7.322,16.383-16.374
				c0-9.052-7.331-16.383-16.383-16.383H33.368c8.018-110.065,96.185-198.235,206.249-206.257v25.471
				c0,9.043,7.339,16.383,16.383,16.383c9.052,0,16.383-7.339,16.383-16.383V33.369c110.068,8.022,198.227,96.195,206.249,206.257
				h-25.462c-9.052,0-16.392,7.322-16.392,16.374c0,9.052,7.339,16.383,16.392,16.383h25.462
				C470.615,382.448,382.454,470.619,272.383,478.64z"/>
		</g>
	</g>
</g>
<g>
</g>
<g>
</g>
<g>
</g>
<g>
</g>
<g>
</g>
<g>
</g>
<g>
</g>
<g>
</g>
<g>
</g>
<g>
</g>
<g>
</g>
<g>
</g>
<g>
</g>
<g>
</g>
<g>
</g>
</svg>
