<svg xmlns="http://www.w3.org/2000/svg" width="39" height="40" viewBox="0 0 39 40">
    <path fill="#4A4A4A" fill-rule="nonzero" d="M38.12 35.867l-9.373-9.748a15.847 15.847 0 0 0 3.73-10.22C32.477 7.132 25.345 0 16.58 0 7.812 0 .68 7.132.68 15.899c0 8.766 7.132 15.898 15.899 15.898 3.29 0 6.427-.992 9.108-2.877l9.443 9.821c.395.41.926.636 1.495.636.538 0 1.05-.205 1.437-.578.824-.793.85-2.108.057-2.932zM16.578 4.147c6.48 0 11.751 5.272 11.751 11.752s-5.271 11.75-11.751 11.75c-6.48 0-11.751-5.27-11.751-11.75s5.271-11.752 11.75-11.752z"/>
</svg>
