<?xml version="1.0" encoding="utf-8"?>
<!-- Generator: Adobe Illustrator 22.0.1, SVG Export Plug-In . SVG Version: 6.00 Build 0)  -->
<svg version="1.1" id="圖層_1" xmlns="http://www.w3.org/2000/svg" xmlns:xlink="http://www.w3.org/1999/xlink" x="0px" y="0px"
	 viewBox="0 0 200 200" style="enable-background:new 0 0 200 200;" xml:space="preserve">
<style type="text/css">
	.st0{clip-path:url(#SVGID_2_);}
	.st1{clip-path:url(#SVGID_4_);fill:#F5A623;}
	.st2{clip-path:url(#SVGID_6_);}
	.st3{clip-path:url(#SVGID_8_);enable-background:new    ;}
	.st4{clip-path:url(#SVGID_10_);}
	.st5{clip-path:url(#SVGID_12_);}
	.st6{clip-path:url(#SVGID_14_);fill:#FFFFFF;}
</style>
<g>
	<defs>
		<path id="SVGID_1_" d="M87.9,22.7h24.2c42.7,0,77.3,34.6,77.3,77.3s-34.6,77.3-77.3,77.3H87.9c-42.7,0-77.3-34.6-77.3-77.3
			S45.2,22.7,87.9,22.7z"/>
	</defs>
	<clipPath id="SVGID_2_">
		<use xlink:href="#SVGID_1_"  style="overflow:visible;"/>
	</clipPath>
	<g class="st0">
		<defs>
			<rect id="SVGID_3_" x="-6794.8" y="-14907.5" width="9280" height="23088.8"/>
		</defs>
		<clipPath id="SVGID_4_">
			<use xlink:href="#SVGID_3_"  style="overflow:visible;"/>
		</clipPath>
		<rect x="-13.6" y="-1.5" class="st1" width="227.2" height="203"/>
	</g>
</g>
<g>
	<defs>
		<rect id="SVGID_5_" x="51.7" y="72.1" width="96.6" height="55.8"/>
	</defs>
	<clipPath id="SVGID_6_">
		<use xlink:href="#SVGID_5_"  style="overflow:visible;"/>
	</clipPath>
	<g class="st2">
		<defs>
			<rect id="SVGID_7_" x="51.7" y="72" width="101.5" height="58"/>
		</defs>
		<clipPath id="SVGID_8_">
			<use xlink:href="#SVGID_7_"  style="overflow:visible;"/>
		</clipPath>
		<g class="st3">
			<g>
				<defs>
					<rect id="SVGID_9_" x="46.9" y="67.1" width="106.3" height="62.8"/>
				</defs>
				<clipPath id="SVGID_10_">
					<use xlink:href="#SVGID_9_"  style="overflow:visible;"/>
				</clipPath>
				<g class="st4">
					<defs>
						<path id="SVGID_11_" d="M120.2,127.9c-3,0-5.8-1.7-7.1-4.4L100,97.8l-13.1,25.8c-1.4,2.7-4.1,4.4-7.1,4.4s-5.8-1.7-7.1-4.4
							L52.6,83.7c-2-3.9-0.4-8.7,3.5-10.7c3.9-2,8.7-0.4,10.7,3.5l13.1,25.8l13.1-25.8c1.4-2.7,4.1-4.4,7.1-4.4c3,0,5.8,1.7,7.1,4.4
							l13.1,25.8l13.1-25.8c2-3.9,6.8-5.5,10.7-3.5c3.9,2,5.5,6.8,3.5,10.7l-20.2,39.8C125.9,126.2,123.2,127.9,120.2,127.9"/>
					</defs>
					<clipPath id="SVGID_12_">
						<use xlink:href="#SVGID_11_"  style="overflow:visible;"/>
					</clipPath>
					<g class="st5">
						<defs>
							<rect id="SVGID_13_" x="51.7" y="72" width="96.7" height="58"/>
						</defs>
						<clipPath id="SVGID_14_">
							<use xlink:href="#SVGID_13_"  style="overflow:visible;"/>
						</clipPath>
						<rect x="27.5" y="47.9" class="st6" width="145" height="104.1"/>
					</g>
				</g>
			</g>
		</g>
	</g>
</g>
</svg>
